<?xml version="1.0" encoding="UTF-8" standalone="no" ?>
<!DOCTYPE svg PUBLIC "-//W3C//DTD SVG 1.1//EN" "http://www.w3.org/Graphics/SVG/1.1/DTD/svg11.dtd">
<svg xmlns="http://www.w3.org/2000/svg" xmlns:xlink="http://www.w3.org/1999/xlink" version="1.1" width="1080" height="1080" viewBox="0 0 1080 1080" xml:space="preserve">
<desc>Created with Fabric.js 5.2.4</desc>
<defs>
</defs>
<g transform="matrix(1 0 0 1 540 540)" id="c657aabe-74bd-4f8e-9208-556984ce6b34"  >
</g>
<g transform="matrix(1 0 0 1 540 540)" id="f18f595c-8695-41f3-9d03-5fe8361df60c"  >
<rect style="stroke: none; stroke-width: 1; stroke-dasharray: none; stroke-linecap: butt; stroke-dashoffset: 0; stroke-linejoin: miter; stroke-miterlimit: 4; fill: rgb(255,255,255); fill-rule: nonzero; opacity: 1; visibility: hidden;" vector-effect="non-scaling-stroke"  x="-540" y="-540" rx="0" ry="0" width="1080" height="1080" />
</g>
<g transform="matrix(0 0 0 0 0 0)"  >
<g style=""   >
</g>
</g>
<g transform="matrix(0.78 0 0 0.78 540 540)"  >
<g style=""   >
		<g transform="matrix(1 0 0 1 -542.6 -249.3)" id="all"  >
<path style="stroke: none; stroke-width: 1; stroke-dasharray: none; stroke-linecap: butt; stroke-dashoffset: 0; stroke-linejoin: miter; stroke-miterlimit: 4; fill: rgb(0,0,0); fill-rule: nonzero; opacity: 1;" vector-effect="non-scaling-stroke"  transform=" translate(-170.9, -140.2)" d="M 210.72 220.93 C 225.77263234342547 201.43320640869163 243.35371578236632 184.02699220058952 263 169.16999999999996 C 264.7541398735865 167.8486411881311 265.13959853441577 165.37195852832002 263.87 163.57999999999998 L 189.61 59.579999999999984 C 188.3702363841344 57.843470606003095 185.99785157804476 57.36287699887628 184.18 58.47999999999998 C 143.09138399213953 84.02899010204555 107.09076144879525 116.96796618121205 77.99999999999991 155.63000000000017 C 77.31153333582546 156.52862439490534 77.03607635095494 157.67688899223555 77.2419354542782 158.790053032428 C 77.44779455760147 159.90321707262044 78.11568981878906 160.87702611759744 79.08 161.47 L 167.23000000000002 217.62 C 169.07070788727523 218.82110171899384 171.53569921801832 218.31202742242735 172.75000000000003 216.48000000000002 L 178.27000000000004 208.37 C 179.52797761015705 206.5249396891094 182.04204172373403 206.04628335431806 183.89000000000004 207.3 L 205.23000000000005 221.82000000000002 C 207.00662895848006 223.02537322393636 209.41516689874885 222.63491807514959 210.72 220.93 Z" stroke-linecap="round" />
</g>
		<g transform="matrix(1 0 0 1 -448.19 -303.03)" id="all"  >
<path style="stroke: none; stroke-width: 1; stroke-dasharray: none; stroke-linecap: butt; stroke-dashoffset: 0; stroke-linejoin: miter; stroke-miterlimit: 4; fill: rgb(0,0,0); fill-rule: nonzero; opacity: 1;" vector-effect="non-scaling-stroke"  transform=" translate(-265.31, -86.47)" d="M 338.25 124.8 L 306.84 12.72 C 306.2591569349942 10.643631060527248 304.1534091297661 9.386336963877472 302.04999999999995 9.860000000000001 C 264.1692198700326 18.55300670980276 227.81447753113014 32.90409518687153 194.20999999999987 52.43000000000028 C 193.22489379995883 53.0008619640943 192.5297408041871 53.96447419290682 192.29874665538478 55.07935504332458 C 192.06775250658248 56.19423589374236 192.32280941187327 57.354723804110634 193 58.27 L 266.68 161.47 C 267.29407226173447 162.3479785675235 268.23469980283306 162.94290556879184 269.2911282621696 163.12148333327045 C 270.3475567215061 163.30006109774902 271.4314665643282 163.0473601667164 272.3 162.42 C 291.92661908700666 148.81281373402112 313.238430494504 137.814036616461 335.69999999999993 129.70000000000002 C 337.70134766313373 128.9856896567939 338.8133094218957 126.84897882623162 338.25 124.8 Z" stroke-linecap="round" />
</g>
		<g transform="matrix(1 0 0 1 -334.25 -326.39)" id="all"  >
<path style="stroke: none; stroke-width: 1; stroke-dasharray: none; stroke-linecap: butt; stroke-dashoffset: 0; stroke-linejoin: miter; stroke-miterlimit: 4; fill: rgb(0,0,0); fill-rule: nonzero; opacity: 1;" vector-effect="non-scaling-stroke"  transform=" translate(-379.25, -63.11)" d="M 429.38 113.39 L 444.24 113.39 C 445.3568275998778 113.39335943223266 446.42420128261375 112.92965024870509 447.183932708826 112.11103963696144 C 447.94366413503815 111.29242902521779 448.3265595831637 110.19347322024208 448.24 109.08 L 441.39 3.78 C 441.27307231561826 1.6572157042294071 439.5159997401213 -0.0032178796152004807 437.39 4.440892098500626e-16 L 389.5 0 C 363.98540808913157 -0.009024445780801228 338.5310326561349 2.4761264188618046 313.4999999999999 7.420000000000073 C 312.39046035838277 7.630906060526166 311.4217889582324 8.301038151713108 310.83316804559365 9.264928707684653 C 310.2445471329549 10.228819263656199 310.09084011645285 11.396627233395186 310.41 12.48 L 341.41 123.27000000000001 C 341.71006906188177 124.3278991856503 342.4264203535795 125.21883591782725 343.3952197542913 125.73904726918222 C 344.36401915500306 126.25925862053721 345.50239736182414 126.36424667744816 346.55 126.03000000000002 C 373.35511975677935 117.62277781770622 401.2873862752035 113.36026606118226 429.3799999999999 113.39000000000003 Z" stroke-linecap="round" />
</g>
		<g transform="matrix(1 0 0 1 -189.75 -332.75)" id="all"  >
<path style="stroke: none; stroke-width: 1; stroke-dasharray: none; stroke-linecap: butt; stroke-dashoffset: 0; stroke-linejoin: miter; stroke-miterlimit: 4; fill: rgb(0,0,0); fill-rule: nonzero; opacity: 1;" vector-effect="non-scaling-stroke"  transform=" translate(-523.75, -56.75)" d="M 602.5 109.34 L 602.5 4.05 C 602.5 1.840861000676826 600.7091389993232 0.04999999999999982 598.5 0.04999999999999982 L 449 0.04999999999999982 C 447.8879777235639 0.06143162549049908 446.8295815759547 0.5296239137026363 446.0730824640525 1.3447517067772474 C 445.3165833521503 2.1598794998518587 444.92854838633 3.250216736359998 445 4.359999999999997 L 451.9 109.65 C 452.0118053046589 111.7767265610693 453.7703386028398 113.4429368610957 455.9 113.44000000000001 L 598.45 113.44000000000001 C 599.5370678254974 113.45393148938668 600.5829787059464 113.02478812276335 601.3469843078794 112.25135035290525 C 602.1109899098124 111.47791258304716 602.5272681942469 110.42681506670205 602.5 109.34 Z" stroke-linecap="round" />
</g>
		<g transform="matrix(1 0 0 1 -4.78 -332.81)" id="all"  >
<path style="stroke: none; stroke-width: 1; stroke-dasharray: none; stroke-linecap: butt; stroke-dashoffset: 0; stroke-linejoin: miter; stroke-miterlimit: 4; fill: rgb(0,0,0); fill-rule: nonzero; opacity: 1;" vector-effect="non-scaling-stroke"  transform=" translate(-708.72, -56.69)" d="M 694.05 81.5 L 723 81.5 C 725.2091389993232 81.5 727 83.29086100067683 727 85.5 L 727 109.28999999999999 C 727 111.49913899932316 728.7908610006768 113.28999999999999 731 113.28999999999999 L 807.4 113.28999999999999 C 809.6091389993231 113.28999999999999 811.4 111.49913899932316 811.4 109.28999999999999 L 811.4 4.05 C 811.4 1.840861000676826 809.6091389993231 0.04999999999999982 807.4 0.04999999999999982 L 610.05 0.04999999999999982 C 608.980413884454 0.049916435279287526 607.955346900804 0.4782004452804325 607.2037473884416 1.239194951547331 C 606.4521478760793 2.00018945781423 606.0366301702504 3.0304974459103797 606.05 4.1 L 606.05 109.34 C 606.05 111.54913899932318 607.8408610006768 113.34 610.05 113.34 L 686 113.34 C 688.2091389993232 113.34 690 111.54913899932318 690 109.34 L 690 85.55 C 689.9864357690701 84.47177215572857 690.4087738460321 83.43373894236905 691.1712563942006 82.6712563942006 C 691.933738942369 81.90877384603213 692.9717721557286 81.48643576907016 694.05 81.5 Z" stroke-linecap="round" />
</g>
		<g transform="matrix(1 0 0 1 171.34 -332.83)" id="all"  >
<path style="stroke: none; stroke-width: 1; stroke-dasharray: none; stroke-linecap: butt; stroke-dashoffset: 0; stroke-linejoin: miter; stroke-miterlimit: 4; fill: rgb(0,0,0); fill-rule: nonzero; opacity: 1;" vector-effect="non-scaling-stroke"  transform=" translate(-884.84, -56.67)" d="M 950.58 0 L 819.05 0 C 817.980413884454 -0.0000835647207122979 816.955346900804 0.42820044528043266 816.2037473884416 1.1891949515473312 C 815.4521478760793 1.9501894578142298 815.0366301702504 2.98049744591038 815.05 4.05 L 815.05 109.34 C 815.05 111.54913899932318 816.8408610006768 113.34 819.05 113.34 L 947.25 113.34 C 949.4175311781676 113.31435061694043 951.180571809094 111.58657079863258 951.25 109.42 L 954.63 4.18 C 954.6652136140729 3.083530327016275 954.2541149830745 2.0196802636690587 953.4907425246014 1.2318044917140276 C 952.7273700661282 0.4439287197589965 951.6770348320905 -0.0005653047581324344 950.58 0 Z" stroke-linecap="round" />
</g>
		<g transform="matrix(1 0 0 1 336.63 -327.12)" id="all"  >
<path style="stroke: none; stroke-width: 1; stroke-dasharray: none; stroke-linecap: butt; stroke-dashoffset: 0; stroke-linejoin: miter; stroke-miterlimit: 4; fill: rgb(0,0,0); fill-rule: nonzero; opacity: 1;" vector-effect="non-scaling-stroke"  transform=" translate(-1050.13, -62.38)" d="M 1004.15 113.39 C 1030.551979826089 113.3717619242823 1056.8198711402881 117.14356170273138 1082.1499999999999 124.58999999999993 C 1084.1155576908131 125.19852015171087 1086.2221297645997 124.21660667994585 1087.02 122.32000000000001 L 1100.18 91.73 C 1101.068012905404 89.6799829977139 1103.4454204444023 88.73259503104532 1105.5 89.61 L 1111.76 92.31 C 1112.763397659189 92.7553861027449 1113.9057465393512 92.76880365064834 1114.919328573281 92.34710814026333 C 1115.932910607211 91.92541262987832 1116.7286285838652 91.10567249042619 1117.12 90.08 L 1145.12 19.700000000000003 C 1145.5595151492466 18.637690019910824 1145.5207063667501 17.437629244101146 1145.0134732229697 16.40593617052501 C 1144.5062400791892 15.374243096948874 1143.5796270542999 14.610672347547613 1142.4699999999998 14.310000000000002 C 1108.2942919331474 4.785109027754524 1072.9781863776261 -0.02934720259228385 1037.5 5.684341886080802e-14 L 962.18 0 C 960.001729546012 -0.00043569680198448995 958.2235653663772 1.7421651992400826 958.18 3.9199999999999995 L 954.8499999999999 109.21000000000001 C 954.8008233125298 110.30169576739092 955.2004395201252 111.3659795256297 955.9559811009341 112.15552047757495 C 956.711522681743 112.94506142952022 957.7571977445242 113.39110704882518 958.8499999999999 113.39000000000001 Z" stroke-linecap="round" />
</g>
		<g transform="matrix(1 0 0 1 531.19 -259.21)" id="all"  >
<path style="stroke: none; stroke-width: 1; stroke-dasharray: none; stroke-linecap: butt; stroke-dashoffset: 0; stroke-linejoin: miter; stroke-miterlimit: 4; fill: rgb(0,0,0); fill-rule: nonzero; opacity: 1;" vector-effect="non-scaling-stroke"  transform=" translate(-1244.69, -130.29)" d="M 1121 139.3 C 1168.5796660532255 161.59392823856115 1208.843736155852 196.9507064208417 1237.1 241.25000000000003 C 1238.1403053248332 242.8929341962254 1240.2014577618527 243.56459283150673 1242.01 242.85 L 1368.13 192.55 C 1369.2512304719467 192.13036390064767 1370.125554730343 191.2305775116795 1370.51284069974 190.0977660511932 C 1370.9001266691373 188.9649545907069 1370.7596527755527 187.71822866259987 1370.13 186.70000000000002 C 1320.8374213167149 105.99691394216664 1243.9346538188024 45.9222898102438 1153.7 17.630000000000024 C 1151.6665837441903 16.982036124777856 1149.4792679173747 18.023198458342122 1148.7 20.009999999999998 L 1120.22 91.68 C 1119.384848035557 93.71516178085406 1120.349840750879 96.04275995068126 1122.38 96.89 L 1129.2600000000002 99.89 C 1130.2538442380198 100.30553795745065 1131.0380783166552 101.10436478895282 1131.435224583503 102.10570040015213 C 1131.8323708503508 103.10703601135143 1131.8088554204794 104.22622965919737 1131.3700000000001 105.21000000000001 L 1119 134 C 1118.5608424509453 134.96784140061897 1118.5249158064353 136.07066575835574 1118.9001504507385 137.0650375657591 C 1119.2753850950414 138.05940937316245 1120.0309272966701 138.8635662417903 1121 139.3 Z" stroke-linecap="round" />
</g>
		<g transform="matrix(1 0 0 1 621.3 -95.31)" id="all"  >
<path style="stroke: none; stroke-width: 1; stroke-dasharray: none; stroke-linecap: butt; stroke-dashoffset: 0; stroke-linejoin: miter; stroke-miterlimit: 4; fill: rgb(0,0,0); fill-rule: nonzero; opacity: 1;" vector-effect="non-scaling-stroke"  transform=" translate(-1334.8, -294.19)" d="M 1371.09 195.14 L 1245.1399999999999 245.36999999999998 C 1244.0454531178511 245.7944625294007 1243.1926294568507 246.6783283632638 1242.807554167359 247.78734519699964 C 1242.4224788778674 248.8963620307355 1242.5440326855098 250.11855337454412 1243.1399999999999 251.12999999999997 C 1266.7880695162846 291.87772924260395 1279.5604004104682 338.0220360590133 1280.2299999999998 385.13 C 1280.2607240977288 387.29542050886914 1281.985641949034 389.0555407653029 1284.1499999999999 389.13 L 1422.8799999999999 393.52 C 1423.963206492952 393.55522296937045 1425.0143429436669 393.14939698651926 1425.792844937546 392.3953998980164 C 1426.5713469314253 391.64140280951364 1427.0105725269339 390.60377886866166 1427.01 389.52 L 1427.01 389.52 L 1427.01 389.52 C 1427.1122271136064 321.97693943605253 1409.5698649718947 255.57863336930936 1376.12 196.89999999999986 C 1375.1197957180896 195.1375172028073 1372.9708617056012 194.38560391016725 1371.09 195.14 Z" stroke-linecap="round" />
</g>
		<g transform="matrix(1 0 0 1 626.79 96.91)" id="all"  >
<path style="stroke: none; stroke-width: 1; stroke-dasharray: none; stroke-linecap: butt; stroke-dashoffset: 0; stroke-linejoin: miter; stroke-miterlimit: 4; fill: rgb(0,0,0); fill-rule: nonzero; opacity: 1;" vector-effect="non-scaling-stroke"  transform=" translate(-1340.29, -486.41)" d="M 1255.84 512 L 1372.84 579.5699999999999 C 1373.7752145381555 580.1261189272275 1374.8966218198009 580.2772579780446 1375.9456957159362 579.9885739742521 C 1376.9947696120714 579.6998899704594 1377.8809719149563 578.9962972030359 1378.3999999999999 578.04 C 1408.4458798395551 523.82097472146 1425.0405971530868 463.18286942328564 1426.79 401.2199999999998 C 1426.8304607632654 400.14713595610704 1426.4379323653218 399.10304446434105 1425.7006997724948 398.322555877547 C 1424.9634671796675 397.542067290753 1423.9434269568717 397.09070986005264 1422.87 397.07 L 1284.29 392.69 C 1283.1999972588883 392.64363254322046 1282.1383511061617 393.044500290327 1281.3510240541389 393.7997300764399 C 1280.5636970021162 394.55495986255283 1280.1190142367361 395.5990119409683 1280.12 396.69 C 1279.1998994964597 434.79148801923424 1270.3662147397827 472.28526950381877 1254.1799999999998 506.78999999999996 C 1253.2746256454514 508.69280893983336 1254.000717691482 510.97168819273674 1255.84 512 Z" stroke-linecap="round" />
</g>
		<g transform="matrix(1 0 0 1 549.11 239.26)" id="all"  >
<path style="stroke: none; stroke-width: 1; stroke-dasharray: none; stroke-linecap: butt; stroke-dashoffset: 0; stroke-linejoin: miter; stroke-miterlimit: 4; fill: rgb(0,0,0); fill-rule: nonzero; opacity: 1;" vector-effect="non-scaling-stroke"  transform=" translate(-1262.61, -628.76)" d="M 1153.21 628 L 1163.5 645.83 C 1164.2152433465753 647.0734533904676 1164.4063399847275 648.5503946609545 1164.0311247299192 649.9349389511976 C 1163.6559094751105 651.3194832414407 1162.7452205175375 652.4978376296172 1161.5 653.21 L 1159.15 654.57 C 1156.6504866079226 656.0077195342753 1155.721538359144 659.1555773441178 1157.0400000000002 661.72 L 1197 739.27 C 1198.3446942527664 741.8689449656387 1201.5095660482252 742.9312795543241 1204.15 741.67 C 1273.8771476562652 708.5627445844093 1332.2529065573606 655.5694686383737 1371.93 589.3599999999999 C 1372.6803327606399 588.115645532608 1372.8985536831235 586.6217633039299 1372.535519900719 585.2147722716059 C 1372.1724861183145 583.8077812392817 1371.2587201280414 582.6059758477187 1370 581.8799999999999 L 1256 516.0499999999998 C 1254.7307949847057 515.314652207582 1253.2167122069154 515.1283406960772 1251.8070969843773 515.534053243394 C 1250.397481761839 515.939765790711 1249.2141021113423 516.9024553772916 1248.53 518.1999999999998 C 1226.5524172510316 559.7882521640254 1194.3603783032363 595.1048631443807 1154.98 620.8299999999998 C 1152.5881023379886 622.3768327679413 1151.8127257702913 625.5177649659017 1153.21 628 Z" stroke-linecap="round" />
</g>
		<g transform="matrix(1 0 0 1 383.05 321.22)" id="all"  >
<path style="stroke: none; stroke-width: 1; stroke-dasharray: none; stroke-linecap: butt; stroke-dashoffset: 0; stroke-linejoin: miter; stroke-miterlimit: 4; fill: rgb(0,0,0); fill-rule: nonzero; opacity: 1;" vector-effect="non-scaling-stroke"  transform=" translate(-1096.55, -710.72)" d="M 1118.61 644.11 C 1117.7544568561764 642.6253773213215 1115.9165149034957 642.0256732569492 1114.35 642.72 C 1079.5876170504002 657.8659138328813 1042.0685912465547 665.6591125683625 1004.1499999999999 665.6099999999999 L 1001.5899999999999 665.61 C 1000.6304744794672 665.6092258658103 999.7163955641537 666.0187200549675 999.0782100280901 666.7352457316856 C 998.4400244920264 667.4517714084038 998.1386261535528 668.4069597646663 998.2499999999999 669.36 L 1010.59 776 C 1010.7738658348684 777.7062030476951 1012.2139185998209 778.9996636150177 1013.9300000000001 779 L 1037.5 779 C 1090.9535867448935 779.0700135423205 1143.845388232803 768.0974159499201 1192.8600000000001 746.77 C 1193.7106268091004 746.4005938659029 1194.36937343843 745.6941550981816 1194.6785189219595 744.8198233932308 C 1194.9876644054887 743.9454916882798 1194.9193746544688 742.981987996487 1194.4900000000002 742.16 L 1153.2900000000002 662.0699999999999 C 1152.8668263583145 661.254451869166 1152.1290090271482 660.6470455708399 1151.2473631958972 660.3884042884386 C 1150.3657173646461 660.1297630060374 1149.4166920179437 660.242313957751 1148.6200000000001 660.6999999999999 L 1136.21 667.8699999999999 C 1135.4388560708983 668.3183169378433 1134.5207600217668 668.4405802158735 1133.6591665166368 668.2096956818191 C 1132.7975730115068 667.9788111477646 1132.0636361494358 667.4138462399351 1131.6200000000001 666.6399999999999 Z" stroke-linecap="round" />
</g>
		<g transform="matrix(1 0 0 1 231.92 332.8)" id="all"  >
<path style="stroke: none; stroke-width: 1; stroke-dasharray: none; stroke-linecap: butt; stroke-dashoffset: 0; stroke-linejoin: miter; stroke-miterlimit: 4; fill: rgb(0,0,0); fill-rule: nonzero; opacity: 1;" vector-effect="non-scaling-stroke"  transform=" translate(-945.42, -722.3)" d="M 884 669.66 L 884 775 C 884 777.2091389993232 885.7908610006768 779 888 779 L 1002.8199999999999 779 C 1003.9700793098333 778.9932460045004 1005.0630510038808 778.4978421215052 1005.8261874787353 777.6374057461068 C 1006.5893239535898 776.7769693707083 1006.9506483761734 775.632654382202 1006.8199999999999 774.49 L 994.64 669.19 C 994.4242531500137 667.1463256887198 992.6949993735054 665.5986435587449 990.64 665.61 L 888.05 665.61 C 886.9717721557286 665.5964357690701 885.933738942369 666.0187738460321 885.1712563942006 666.7812563942006 C 884.4087738460321 667.543738942369 883.9864357690701 668.5817721557286 884 669.66 Z" stroke-linecap="round" />
</g>
		<g transform="matrix(1 0 0 1 103.8 332.83)" id="all"  >
<path style="stroke: none; stroke-width: 1; stroke-dasharray: none; stroke-linecap: butt; stroke-dashoffset: 0; stroke-linejoin: miter; stroke-miterlimit: 4; fill: rgb(0,0,0); fill-rule: nonzero; opacity: 1;" vector-effect="non-scaling-stroke"  transform=" translate(-817.3, -722.33)" d="M 764 713 L 758.1 713 C 755.8908610006769 713 754.1 714.7908610006768 754.1 717 L 754.1 775 C 754.1 777.2091389993232 755.8908610006769 779 758.1 779 L 876.5 779 C 878.7091389993232 779 880.5 777.2091389993232 880.5 775 L 880.5 669.66 C 880.5 667.4508610006768 878.7091389993232 665.66 876.5 665.66 L 772.05 665.66 C 769.8408610006768 665.66 768.05 667.4508610006768 768.05 669.66 L 768.05 709 C 768.0500835647207 710.0695861155459 767.6217995547195 711.094653099196 766.8608050484527 711.8462526115583 C 766.0998105421858 712.5978521239207 765.0695025540896 713.0133698297495 764 713 Z" stroke-linecap="round" />
</g>
		<g transform="matrix(1 0 0 1 -56.75 332.8)" id="all"  >
<path style="stroke: none; stroke-width: 1; stroke-dasharray: none; stroke-linecap: butt; stroke-dashoffset: 0; stroke-linejoin: miter; stroke-miterlimit: 4; fill: rgb(0,0,0); fill-rule: nonzero; opacity: 1;" vector-effect="non-scaling-stroke"  transform=" translate(-656.75, -722.3)" d="M 731 665.61 L 567.05 665.61 C 564.8408610006768 665.61 563.05 667.4008610006769 563.05 669.61 L 563.05 775 C 563.05 777.2091389993232 564.8408610006768 779 567.05 779 L 746.4499999999999 779 C 748.6591389993231 779 750.4499999999999 777.2091389993232 750.4499999999999 775 L 750.4499999999999 717.1 C 750.4499999999999 714.8908610006769 748.6591389993231 713.1 746.4499999999999 713.1 L 739.05 713.1 C 736.8408610006768 713.1 735.05 711.3091389993232 735.05 709.1 L 735.05 669.66 C 735.0635642309298 668.5817721557286 734.6412261539679 667.543738942369 733.8787436057994 666.7812563942006 C 733.1162610576309 666.0187738460321 732.0782278442714 665.5964357690701 731 665.61 Z" stroke-linecap="round" />
</g>
		<g transform="matrix(1 0 0 1 -205.16 332.83)" id="all"  >
<path style="stroke: none; stroke-width: 1; stroke-dasharray: none; stroke-linecap: butt; stroke-dashoffset: 0; stroke-linejoin: miter; stroke-miterlimit: 4; fill: rgb(0,0,0); fill-rule: nonzero; opacity: 1;" vector-effect="non-scaling-stroke"  transform=" translate(-508.34, -722.33)" d="M 461.29 779 L 555.45 779 C 557.6591389993232 779 559.45 777.2091389993232 559.45 775 L 559.45 669.66 C 559.45 667.4508610006768 557.6591389993232 665.66 555.45 665.66 L 471.54 665.66 C 469.45710302948197 665.6524630082088 467.71703376527006 667.2446263849627 467.54 669.3199999999999 L 457.26 774.56 C 457.13372394750746 775.700030587744 457.50292233835006 776.8394159257616 458.27381318795864 777.6887348766952 C 459.0447040375672 778.5380538276287 460.1431029642261 779.0155747153447 461.29 779 Z" stroke-linecap="round" />
</g>
		<g transform="matrix(1 0 0 1 -327.94 328.07)" id="all"  >
<path style="stroke: none; stroke-width: 1; stroke-dasharray: none; stroke-linecap: butt; stroke-dashoffset: 0; stroke-linejoin: miter; stroke-miterlimit: 4; fill: rgb(0,0,0); fill-rule: nonzero; opacity: 1;" vector-effect="non-scaling-stroke"  transform=" translate(-385.56, -717.57)" d="M 429.38 665.61 C 405.35469983377055 665.6247934981424 381.4299098839404 662.50855346955 358.2099999999999 656.34 C 356.2616675805893 655.7892925119605 354.20908701398207 656.7812299824338 353.43 658.65 L 307.55 765.41 C 307.0554642431172 766.52173264272 307.09384325812266 767.7981184608136 307.6542814770654 768.8781296119012 C 308.2147196960081 769.9581407629887 309.23627544915405 770.7243375710202 310.43 770.9599999999999 C 336.4463758661493 776.3063918589506 362.9399737420176 778.9869127013302 389.5000000000001 778.96 L 449.64 778.9599999999999 C 451.72289697051804 778.9675369917911 453.46296623472995 777.3753736150372 453.64 775.3 L 463.89 670.01 C 464.0156096719533 668.8752158578343 463.65031584213176 667.7408384003191 462.8861267527155 666.8925885110671 C 462.12193766329926 666.044338621815 461.0316938311313 665.5630692745218 459.89 665.5699999999999 Z" stroke-linecap="round" />
</g>
		<g transform="matrix(1 0 0 1 -449.49 302.21)" id="all"  >
<path style="stroke: none; stroke-width: 1; stroke-dasharray: none; stroke-linecap: butt; stroke-dashoffset: 0; stroke-linejoin: miter; stroke-miterlimit: 4; fill: rgb(0,0,0); fill-rule: nonzero; opacity: 1;" vector-effect="non-scaling-stroke"  transform=" translate(-264.01, -691.71)" d="M 265.65 616.26 L 179.1 711.73 C 178.28482800114298 712.6028779767466 177.9023478707063 713.7943537948937 178.05715228245575 714.9786075447771 C 178.2119566942052 716.1628612946604 178.88784889162125 717.2159877889052 179.9 717.85 C 216.4301119418696 741.2349697602534 256.629679404798 758.3160675058115 298.8199999999998 768.3799999999999 C 300.73494472433583 768.8532456379007 302.7090001735405 767.8598499924946 303.46999999999997 766.04 L 349.65 658.5899999999999 C 350.11478796644883 657.541435860718 350.1070977442306 656.3438013223437 349.6288826293325 655.3012923718658 C 349.15066751443436 654.2587834213878 348.24794346926006 653.4717148568465 347.15 653.1399999999999 C 319.98091674148543 644.669701285186 294.2916270919809 632.0325274142676 271 615.68 C 269.32622975547423 614.4939885729798 267.0307170022892 614.7428478994933 265.65 616.26 Z" stroke-linecap="round" />
</g>
		<g transform="matrix(1 0 0 1 -540.48 249.8)" id="all"  >
<path style="stroke: none; stroke-width: 1; stroke-dasharray: none; stroke-linecap: butt; stroke-dashoffset: 0; stroke-linejoin: miter; stroke-miterlimit: 4; fill: rgb(0,0,0); fill-rule: nonzero; opacity: 1;" vector-effect="non-scaling-stroke"  transform=" translate(-173.02, -639.3)" d="M 213.61 567.08 L 183.32000000000002 584.57 C 181.38407953800507 585.687144566143 178.90913271374606 585.0247718175168 177.79000000000002 583.09 L 172.43 573.8000000000001 C 171.88780380537244 572.8331363491508 170.96869139550628 572.134628104639 169.8919506012228 571.8711299173054 C 168.81520980693932 571.607631729972 167.67740461285536 571.8027745749256 166.75 572.4100000000001 L 84.65 624.7700000000001 C 83.6764100841602 625.3753166417189 83.00933974244384 626.3692765668828 82.81807816078029 627.4996325145145 C 82.62681657911673 628.6299884621461 82.9297500196646 629.7880776228878 83.65 630.6800000000001 C 108.19318849472941 661.7717371638413 137.30716700726992 688.9638896483391 169.99999999999991 711.3299999999999 C 171.66748138746595 712.4871230546391 173.93726059517988 712.211998302189 175.28 710.69 L 262.21000000000004 614.8100000000001 C 262.982064160994 613.9807531932776 263.366234073422 612.8629831259553 263.2670938073618 611.7343093277318 C 263.16795354130164 610.6056355295083 262.5948047955182 609.5719542632452 261.69000000000005 608.8900000000001 C 245.93560158813216 596.8332472258707 231.51982036620672 583.1214925287369 218.69000000000008 567.9900000000001 C 217.43418783938438 566.5073597722002 215.30238962179334 566.1254825324348 213.61 567.08 Z" stroke-linecap="round" />
</g>
		<g transform="matrix(1 0 0 1 -615.05 140.91)" id="all"  >
<path style="stroke: none; stroke-width: 1; stroke-dasharray: none; stroke-linecap: butt; stroke-dashoffset: 0; stroke-linejoin: miter; stroke-miterlimit: 4; fill: rgb(0,0,0); fill-rule: nonzero; opacity: 1;" vector-effect="non-scaling-stroke"  transform=" translate(-98.45, -530.41)" d="M 192.34 531.12 C 175.70550182200674 503.37438257404125 164.11019043958916 472.90495120418484 158.09000000000003 441.12 C 157.75549047389802 439.1796966452996 156.05871897825392 437.77137630391496 154.09 437.8 L 7.88 440.51 C 6.727484897488974 440.53150917693097 5.640275906627121 441.0491763317751 4.8970628632188005 441.9303051976715 C 4.15384981981048 442.81143406356796 3.8268919371806875 443.9703565010078 3.999999999999999 445.11 C 13.116352552963763 508.98445016234194 38.04045826190488 569.5708916498328 76.5100000000001 621.3700000000001 C 77.76215039241299 623.0934037240189 80.14528499876111 623.5330964558175 81.93 622.37 L 165.3 569.21 C 167.1276080752327 568.0447148992039 167.7137944962413 565.6470802147778 166.63000000000002 563.77 L 163 557.5 C 162.4610346876393 556.5736868377373 162.3163236981595 555.4698386092774 162.59830647371888 554.4359017655597 C 162.88028924927826 553.401964921842 163.5653785869713 552.5244258735202 164.5 552 L 190.91 536.75 C 191.85825489309138 536.2040628322136 192.54526415810162 535.2976695858517 192.81462940808328 534.2371616436162 C 193.08399465806497 533.1766537013806 192.9127934787617 532.0522780508682 192.34 531.12 Z" stroke-linecap="round" />
</g>
		<g transform="matrix(1 0 0 1 -616.79 -136.1)" id="all"  >
<path style="stroke: none; stroke-width: 1; stroke-dasharray: none; stroke-linecap: butt; stroke-dashoffset: 0; stroke-linejoin: miter; stroke-miterlimit: 4; fill: rgb(0,0,0); fill-rule: nonzero; opacity: 1;" vector-effect="non-scaling-stroke"  transform=" translate(-96.71, -253.4)" d="M 185.61 252.11 L 163.61 237.11 C 162.7128790779555 236.51468915763795 162.09362805718592 235.58285644229028 161.89225631404628 234.52518429608017 C 161.69088457090663 233.46751214987006 161.9243978371779 232.37332039766585 162.54000000000002 231.49 L 166.24 226.06 C 166.85230808384142 225.15414507225202 167.07336658440437 224.03961211225356 166.85314752284572 222.968632231682 C 166.63292846128707 221.89765235111042 165.9900490513641 220.96076567499043 165.07000000000002 220.37 L 76.58 164 C 74.76736459566776 162.8185592390734 72.34385482220995 163.29262787848836 71.11 165.07 C 38.34378903268569 211.39197691577016 16.154117516866847 264.3467745393675 6.109999999999999 320.1900000000002 C 5.905711581771374 321.2802026705783 6.16327631731971 322.4062852327348 6.821174907021321 323.2992830302836 C 7.479073496722933 324.1922808278325 8.478231437310763 324.77200916037384 9.579999999999998 324.9 L 153.2 343.41 C 155.34317618791778 343.6721599338307 157.31809666770795 342.2151074909633 157.7 340.09000000000003 C 162.9278774346339 311.1429737661328 172.78052911360967 283.2260018395488 186.87999999999994 257.41 C 187.88646467534124 255.5801299120509 187.33649731101843 253.2849905176328 185.61 252.11 Z" stroke-linecap="round" />
</g>
		<g transform="matrix(1 0 0 1 -635.38 -6.84)" id="all"  >
<path style="stroke: none; stroke-width: 1; stroke-dasharray: none; stroke-linecap: butt; stroke-dashoffset: 0; stroke-linejoin: miter; stroke-miterlimit: 4; fill: rgb(0,0,0); fill-rule: nonzero; opacity: 1;" vector-effect="non-scaling-stroke"  transform=" translate(-78.12, -382.66)" d="M 153.27 389.5 L 153.27 389.5 C 153.26826866159377 376.7655835458349 154.13695985450633 364.04593980961204 155.87000000000003 351.4300000000001 C 156.0235272475514 350.35618147877136 155.74096236497425 349.2655794680401 155.0853201808915 348.40140925406274 C 154.42967799680872 347.53723904008547 153.45548640855594 346.9713712038776 152.38 346.83 L 8.78 328.36 C 6.59304189332158 328.0510677938663 4.569588279663758 329.57313467139653 4.26 331.76 C 1.420806736901516 350.8755839944405 -0.0030641825419079893 370.1747170668958 -4.796163466380676e-14 389.4999999999998 L 0 389.5 C -0.00012969418790960733 404.1844088814937 0.8211532095222198 418.8573290514365 2.4600000000000364 433.45000000000016 C 2.693398559279582 435.52061212790306 4.47729558924175 437.06520589774834 6.56 437 L 152.27 434.32 C 153.4312939995427 434.31281947006846 154.5321393092275 433.8012936581275 155.28649022493937 432.9183383878286 C 156.04084114065125 432.0353831175297 156.3742196289727 430.86817369516314 156.20000000000002 429.71999999999997 C 154.25190050142066 416.4018390453032 153.27266315008524 402.959884686698 153.27000000000007 389.49999999999994 Z" stroke-linecap="round" />
</g>
		<g transform="matrix(0 1 -1 0 2.57 5.26)" id="all"  >
<rect style="stroke: none; stroke-width: 1; stroke-dasharray: none; stroke-linecap: butt; stroke-dashoffset: 0; stroke-linejoin: miter; stroke-miterlimit: 4; fill: rgb(0,0,0); fill-rule: nonzero; opacity: 1;" vector-effect="non-scaling-stroke"  x="-194.76" y="-331.07" rx="18.28" ry="18.28" width="389.52" height="662.14" />
</g>
		<g transform="matrix(1 0 0 1 -206.83 7.38)" id="all"  >
<path style="stroke: none; stroke-width: 1; stroke-dasharray: none; stroke-linecap: butt; stroke-dashoffset: 0; stroke-linejoin: miter; stroke-miterlimit: 4; fill: rgb(0,0,0); fill-rule: nonzero; opacity: 1;" vector-effect="non-scaling-stroke"  transform=" translate(-506.67, -396.88)" d="M 495.66 437 C 509.14000000000004 427.88 517.88 413.28 517.88 396.83 L 517.88 396.83 C 517.88 380.44 509.2 365.88 495.79 356.76 M 495.79 361.34999999999997 C 506.88 369.86999999999995 513.9200000000001 382.60999999999996 513.9200000000001 396.83 L 513.9200000000001 396.83 C 513.9200000000001 411.21 506.74000000000007 424.04999999999995 495.4600000000001 432.57" stroke-linecap="round" />
</g>
		<g transform="matrix(1 0 0 1 210.76 4.48)" id="all"  >
<path style="stroke: none; stroke-width: 1; stroke-dasharray: none; stroke-linecap: butt; stroke-dashoffset: 0; stroke-linejoin: miter; stroke-miterlimit: 4; fill: rgb(0,0,0); fill-rule: nonzero; opacity: 1;" vector-effect="non-scaling-stroke"  transform=" translate(-924.26, -393.98)" d="M 935.28 353.88 C 921.79 363 913.06 377.59 913.06 394 L 913.06 394 C 913.06 410.4 921.7399999999999 425 935.15 434.08 M 935.15 429.49 C 924 421 917 408.27 917 394 L 917 394 C 917 379.63 924.18 366.79 935.46 358.26" stroke-linecap="round" />
</g>
		<g transform="matrix(1 0 0 1 269.55 5.26)" id="all"  >
<path style="stroke: none; stroke-width: 1; stroke-dasharray: none; stroke-linecap: butt; stroke-dashoffset: 0; stroke-linejoin: miter; stroke-miterlimit: 4; fill: rgb(0,0,0); fill-rule: nonzero; opacity: 1;" vector-effect="non-scaling-stroke"  transform=" translate(-983.05, -394.76)" d="M 1032.59 505.47 L 938.3899999999999 505.47 C 938.0319577387165 505.47 937.6885799563029 505.32776826550673 937.435405845398 505.07459415460187 C 937.1822317344931 504.821420043697 937.0399999999998 504.4780422612834 937.0399999999998 504.12 L 937.0399999999998 287 C 937.0399999999998 285.34314575050763 938.3831457505074 284 940.0399999999998 284 L 1032.59 284 L 1032.59 280.4 L 936.51 280.4 C 934.8531457505076 280.4 933.51 281.7431457505076 933.51 283.4 L 933.51 507.76 C 933.5099901293114 508.11978162650433 933.6535937577618 508.46468361476474 933.9089348075523 508.7181471568362 C 934.1642758573428 508.9716106989077 934.5102282440488 509.1126650492216 934.87 509.11 L 1032.6 509.11 Z" stroke-linecap="round" />
</g>
		<g transform="matrix(1 0 0 1 304.09 3.11)" id="all"  >
<path style="stroke: none; stroke-width: 1; stroke-dasharray: none; stroke-linecap: butt; stroke-dashoffset: 0; stroke-linejoin: miter; stroke-miterlimit: 4; fill: rgb(0,0,0); fill-rule: nonzero; opacity: 1;" vector-effect="non-scaling-stroke"  transform=" translate(-1017.59, -392.61)" d="M 1035 446.54 L 1007.54 446.54 C 1005.7655495969138 446.5344892579084 1004.3299914429264 445.094458960139 1004.3299999999999 443.32 L 1004.3299999999999 342.22 C 1004.3299999999999 340.27043483309734 1005.9104348330973 338.69000000000005 1007.8599999999999 338.69000000000005 L 1035 338.69000000000005 L 1035 335.44000000000005 L 1003.73 335.44000000000005 C 1002.7920543653117 335.43734291954416 1001.8916138954557 335.80807923892354 1001.2274460888395 336.4703708652952 C 1000.5632782822232 337.1326624916668 1000.1899962364224 338.0320506017417 1000.19 338.97 L 1000.19 446.58 C 1000.1955107420918 448.35445040308605 1001.6355410398611 449.7900085570735 1003.4100000000001 449.78999999999996 L 1035 449.78999999999996 Z" stroke-linecap="round" />
</g>
		<g transform="matrix(1 0 0 1 -266.07 2.25)" id="all"  >
<path style="stroke: none; stroke-width: 1; stroke-dasharray: none; stroke-linecap: butt; stroke-dashoffset: 0; stroke-linejoin: miter; stroke-miterlimit: 4; fill: rgb(0,0,0); fill-rule: nonzero; opacity: 1;" vector-effect="non-scaling-stroke"  transform=" translate(-447.43, -391.75)" d="M 397.86 281.05 L 492.06 281.05 C 492.4188596086347 281.04731179963176 492.76380149960903 281.18868013593374 493.01756068183767 281.44243931816237 C 493.2713198640663 281.696198500391 493.4126882003683 282.04114039136533 493.41 282.40000000000003 L 493.41 499.49 C 493.41 501.1468542494924 492.0668542494924 502.49 490.41 502.49 L 397.86 502.49 L 397.86 506.11 L 494 506.11 C 495.65685424949237 506.11 497 504.7668542494924 497 503.11 L 497 278.76 C 497.0000201997543 278.012780715529 496.3971990849897 277.40549425917357 495.65 277.4 L 397.86 277.4 Z" stroke-linecap="round" />
</g>
		<g transform="matrix(1 0 0 1 -300.6 4.41)" id="all"  >
<path style="stroke: none; stroke-width: 1; stroke-dasharray: none; stroke-linecap: butt; stroke-dashoffset: 0; stroke-linejoin: miter; stroke-miterlimit: 4; fill: rgb(0,0,0); fill-rule: nonzero; opacity: 1;" vector-effect="non-scaling-stroke"  transform=" translate(-412.9, -393.91)" d="M 395.5 340 L 423 340 C 424.77283404695686 340 426.21 341.4371659530431 426.21 343.21 L 426.21 444.30999999999995 C 426.2100077850925 446.2611894203514 424.6311816352745 447.8444881654947 422.68 447.84999999999997 L 395.5 447.84999999999997 L 395.5 451.09999999999997 L 426.78 451.09999999999997 C 428.72956516690266 451.09999999999997 430.30999999999995 449.5195651669027 430.30999999999995 447.57 L 430.30999999999995 339.94 C 430.30999999999995 338.1671659530432 428.87283404695677 336.73 427.09999999999997 336.73 L 395.5 336.73 Z" stroke-linecap="round" />
</g>
		<g transform="matrix(1 0 0 1 2.94 5.62)" id="all"  >
<path style="stroke: none; stroke-width: 1; stroke-dasharray: none; stroke-linecap: butt; stroke-dashoffset: 0; stroke-linejoin: miter; stroke-miterlimit: 4; fill: rgb(0,0,0); fill-rule: nonzero; opacity: 1;" vector-effect="non-scaling-stroke"  transform=" translate(-716.44, -395.12)" d="M 1039 568.4 L 1039 221.83 C 1039 213.47000000000003 1031.55 206.70000000000002 1022.35 206.70000000000002 L 410.54 206.70000000000002 C 401.34000000000003 206.70000000000002 393.88 213.47000000000003 393.88 221.83 L 393.88 568.4 C 393.88 576.76 401.34 583.54 410.54 583.54 L 1022.3800000000001 583.54 C 1031.58 583.54 1039 576.76 1039 568.4 Z M 412 577.66 C 409.0187349440979 577.7749750810926 406.1204447246463 576.6640284599986 403.9798616676441 574.5857924823265 C 401.83927861064194 572.5075565046545 400.643172097071 569.6433606665033 400.67 566.66 L 400.67 224.23 C 400.643172097071 221.24663933349657 401.83927861064194 218.38244349534546 403.9798616676441 216.30420751767343 C 406.1204447246463 214.22597154000138 409.0187349440979 213.11502491890735 412 213.23 L 1020 213.23 C 1026.69 213.23 1032.11 218.16 1032.11 224.23 L 1032.11 566.65 C 1032.11 572.73 1026.6899999999998 577.65 1019.9999999999999 577.65 Z" stroke-linecap="round" />
</g>
		<g transform="matrix(1 0 0 1 -1.5 2.5)" id="all"  >
<path style="stroke: none; stroke-width: 1; stroke-dasharray: none; stroke-linecap: butt; stroke-dashoffset: 0; stroke-linejoin: miter; stroke-miterlimit: 4; fill: rgb(0,0,0); fill-rule: nonzero; opacity: 1;" vector-effect="non-scaling-stroke"  transform=" translate(-712, -392)" d="M 712 335 C 680.5197692596448 335 655 360.51976925964476 655 392 C 655 423.48023074035524 680.5197692596448 449 712 449 C 743.4802307403552 449 769 423.48023074035524 769 392 C 769 360.51976925964476 743.4802307403552 335 712 335 Z M 712 444 C 683.2811930087987 444 660 420.71880699120123 660 392 C 660 363.2811930087987 683.2811930087987 340 712 340 C 740.7188069912013 340 764 363.2811930087987 764 392 C 764 420.71880699120123 740.7188069912013 444 712 444 Z" stroke-linecap="round" />
</g>
		<g transform="matrix(1 0 0 1 -7 2.5)" id="all"  >
<path style="stroke: none; stroke-width: 1; stroke-dasharray: none; stroke-linecap: butt; stroke-dashoffset: 0; stroke-linejoin: miter; stroke-miterlimit: 4; fill: rgb(0,0,0); fill-rule: nonzero; opacity: 1;" vector-effect="non-scaling-stroke"  transform=" translate(-706.5, -392)" d="M 1081.5 174.57 L 1081.5 132.5 L 347.5 132.5 L 347.5 167.82999999999998 C 253.38 203.7 186.5 294.78 186.5 401.5 L 186.5 401.5 C 186.5 539.5699999999999 298.43 651.5 436.5 651.5 L 976.5 651.5 C 1114.57 651.5 1226.5 539.5699999999999 1226.5 401.5 L 1226.5 401.5 C 1226.5 300.93 1167.11 214.25 1081.5 174.57 Z M 1179.5 393.5 C 1179.5 510.58 1084.58 605.5 967.5 605.5 L 445.5 605.5 C 328.42 605.5 233.5 510.58 233.5 393.5 L 233.5 393.5 C 233.5 276.42 328.42 181.5 445.5 181.5 L 967.5 181.5 C 1084.58 181.5 1179.5 276.42 1179.5 393.5 Z" stroke-linecap="round" />
</g>
</g>
</g>
<g transform="matrix(NaN NaN NaN NaN 0 0)"  >
<g style=""   >
</g>
</g>
<g transform="matrix(0.71 -0.71 0.71 0.71 123.48 345.08)" style="" id="56942c19-1cde-4d23-9d3d-3247d482bc08"  >
		<text xml:space="preserve" font-family="Raleway" font-size="105" font-style="normal" font-weight="900" style="stroke: none; stroke-width: 1; stroke-dasharray: none; stroke-linecap: butt; stroke-dashoffset: 0; stroke-linejoin: miter; stroke-miterlimit: 4; fill: rgb(255,24,24); fill-rule: nonzero; opacity: 1; white-space: pre;" ><tspan x="-28.72" y="32.98" >1</tspan></text>
</g>
</svg>